<?xml version="1.0" encoding="utf-8"?>
<!-- Generator: Adobe Illustrator 23.1.1, SVG Export Plug-In . SVG Version: 6.00 Build 0)  -->
<svg version="1.1" id="Layer_1" xmlns="http://www.w3.org/2000/svg" xmlns:xlink="http://www.w3.org/1999/xlink" x="0px" y="0px"
	 viewBox="0 0 911.2 310" style="enable-background:new 0 0 911.2 310;" xml:space="preserve">
<style type="text/css">
	.st0{fill:#FFFFFF;}
	.st1{fill:url(#SVGID_1_);}
	.st2{fill:url(#SVGID_2_);}
	.st3{fill:url(#SVGID_3_);}
	.st4{fill:url(#SVGID_4_);}
	.st5{fill:url(#SVGID_5_);}
</style>
<g>
	<g>
		<g>
			<path class="st0" d="M451.6,188.4c0,2.1-0.9,4-2.6,5.6c-4.2,4.2-9.3,7.5-15.4,9.9c-6.1,2.4-12.4,3.6-18.8,3.6
				c-9.3,0-17.9-2.2-25.7-6.7s-14-10.6-18.6-18.5c-4.6-7.9-6.9-16.6-6.9-26.2c0-10,2.4-18.9,7.1-26.8s11-13.9,18.9-18.2
				s16.3-6.4,25.1-6.4c6.6,0,12.9,1.1,18.9,3.4c6,2.3,11.1,5.5,15.3,9.7c1.6,1.4,2.4,3.1,2.4,5.2c0,1.4-0.5,2.9-1.5,4.5
				c-1.3,1.4-2.7,2.1-4.3,2.1c-1.7,0-3.6-0.8-5.8-2.4c-6.7-6.2-15.1-9.2-25.1-9.2c-6.9,0-13.1,1.7-18.8,5.1
				c-5.7,3.4-10.1,7.9-13.3,13.7s-4.8,12.1-4.8,19s1.6,13.2,4.8,19s7.7,10.4,13.3,13.9s11.9,5.2,18.8,5.2c10.2,0,18.5-3.2,25.1-9.7
				c2.3-1.4,4.3-2.1,6-2.1s3.1,0.7,4.3,2.1C451.1,185.3,451.6,186.7,451.6,188.4z"/>
			<path class="st0" d="M557.8,108c1.2,1.3,1.8,2.9,1.8,4.7c0,1-0.2,2.1-0.6,3.2l-41.7,90.7c-5.7,12.8-11.9,21.9-18.5,27.5
				c-6.6,5.6-15,8.4-25.4,8.4c-2,0-3.7-0.6-5.2-1.8s-2.1-2.8-2.1-4.6c0-3.9,2.4-6,7.1-6.2c8.2-0.1,14.5-2.3,19.1-6.5
				c4.6-4.2,9-11.4,13.3-21.4L466,116c-0.3-0.6-0.4-1.4-0.4-2.6c0-2,0.6-3.8,1.8-5.3s2.8-2.3,4.8-2.3c1.3,0,2.5,0.4,3.8,1.2
				c1.2,0.8,2.1,1.8,2.7,3.1l33.7,77.4l34.2-77.1c1-3,3.2-4.5,6.7-4.5C555.1,106,556.6,106.7,557.8,108z"/>
			<path class="st0" d="M654.4,188.4c0,2.1-0.9,4-2.6,5.6c-4.2,4.2-9.3,7.5-15.4,9.9c-6.1,2.4-12.4,3.6-18.8,3.6
				c-9.3,0-17.9-2.2-25.7-6.7s-14-10.6-18.6-18.5c-4.6-7.9-6.9-16.6-6.9-26.2c0-10,2.4-18.9,7.1-26.8c4.7-7.8,11-13.9,18.9-18.2
				c7.9-4.3,16.3-6.4,25.1-6.4c6.6,0,12.9,1.1,18.9,3.4c6,2.3,11.1,5.5,15.3,9.7c1.6,1.4,2.4,3.1,2.4,5.2c0,1.4-0.5,2.9-1.5,4.5
				c-1.3,1.4-2.7,2.1-4.3,2.1c-1.7,0-3.7-0.8-5.8-2.4c-6.7-6.2-15.1-9.2-25.1-9.2c-6.9,0-13.2,1.7-18.8,5.1
				c-5.7,3.4-10.1,7.9-13.3,13.7c-3.2,5.8-4.8,12.1-4.8,19s1.6,13.2,4.8,19c3.2,5.8,7.7,10.4,13.3,13.9c5.7,3.4,11.9,5.2,18.8,5.2
				c10.2,0,18.5-3.2,25.1-9.7c2.3-1.4,4.3-2.1,6-2.1c1.7,0,3.2,0.7,4.3,2.1C653.9,185.3,654.4,186.7,654.4,188.4z"/>
			<path class="st0" d="M681.5,69.5c1.3-1.4,2.9-2,4.9-2c2,0,3.7,0.7,5,2s2,3,2,5.1v124.2c0,2.3-0.7,4.1-2,5.4s-3,1.9-4.8,1.9
				c-1.9,0-3.5-0.6-4.9-1.9c-1.4-1.3-2.2-3.1-2.2-5.4V74.5C679.6,72.5,680.2,70.8,681.5,69.5z"/>
			<path class="st0" d="M743.4,200.5c-7.9-4.6-14.2-10.9-18.8-18.8c-4.7-7.9-7-16.4-7-25.6c0-9.3,2.3-17.9,7-25.8
				c4.7-7.9,10.9-14.1,18.7-18.7s16.4-6.9,25.7-6.9s17.9,2.3,25.7,6.9c7.8,4.6,14,10.8,18.6,18.7c4.6,7.9,6.9,16.5,6.9,25.8
				c0,9.2-2.3,17.7-6.9,25.6s-10.8,14.1-18.7,18.8c-7.9,4.7-16.4,7-25.6,7C759.8,207.5,751.3,205.2,743.4,200.5z M788.1,188.8
				c5.7-3.4,10.3-8.1,13.7-13.9c3.4-5.8,5-12.1,5-18.8c0-6.9-1.7-13.2-5-19.1c-3.4-5.9-7.9-10.5-13.7-14c-5.7-3.4-12.1-5.2-19.1-5.2
				c-7,0-13.4,1.7-19.2,5.2s-10.4,8.1-13.8,14c-3.4,5.9-5,12.2-5,19.1c0,6.7,1.7,13,5,18.8c3.4,5.8,8,10.4,13.8,13.9
				s12.2,5.2,19.2,5.2C776,194,782.4,192.3,788.1,188.8z"/>
			<path class="st0" d="M853.7,203.4c-6.2-2.7-10.9-6.4-14.1-11c-1.6-1.6-2.4-3.4-2.4-5.6c0-1.6,0.5-2.9,1.6-4.1
				c1.1-1.1,2.4-1.7,4-1.7c2,0,4.4,0.9,7.1,2.8c5.2,7,13.9,10.5,26.2,10.5c6,0,11-1.5,15-4.5c4-3,6-6.8,6-11.4c0-4.6-2.2-8.2-6.5-11
				c-4.4-2.7-11.6-5.6-21.6-8.6c-8.5-2.4-15.2-5.9-20.3-10.4s-7.6-10.6-7.6-18.4c0-8.2,3.2-14.4,9.5-18.8s14.1-6.6,23.4-6.6
				c13.5,0,23.8,4.4,31.2,13.1c0.7,0.6,1.3,1.4,1.8,2.6c0.5,1.1,0.8,2.3,0.8,3.4c0,1.7-0.5,3.2-1.6,4.4c-1.1,1.2-2.4,1.8-4,1.8
				c-1.2,0-2.2-0.2-3.2-0.6s-2.1-1-3.2-1.7c-5.2-6.6-12.9-9.9-23.2-9.9c-4.9,0-9,1-12.4,2.9s-5,5.3-5,10c0,4.6,1.6,8.1,4.9,10.6
				c3.3,2.5,8.4,4.8,15.3,7c12,3.7,21,7.7,27,12c5.9,4.3,8.9,10.3,8.9,18.1c0,5.6-1.6,10.6-4.8,15c-3.2,4.4-7.6,7.9-13,10.3
				c-5.5,2.4-11.4,3.6-17.8,3.6C867.2,207.5,860,206.2,853.7,203.4z"/>
		</g>
	</g>
	<g>
		
			<linearGradient id="SVGID_1_" gradientUnits="userSpaceOnUse" x1="169.2586" y1="66.8215" x2="293.6988" y2="66.8215" gradientTransform="matrix(1 0 0 -1 0 310.9563)">
			<stop  offset="1.887480e-07" style="stop-color:#92FFC0"/>
			<stop  offset="1" style="stop-color:#4CA0A2"/>
		</linearGradient>
		<path class="st1" d="M276.1,190.5c21.1,18.1,23.6,49.9,5.5,71.1c-1.7,2-3.6,3.9-5.5,5.5l-2.8,2.4c-13.6,11.5-28.9,20.8-45.1,27.5
			c-16.2,6.7-33.3,10.9-50.5,12.3c-2.8,0.2-5.6,0.4-8.3,0.5c22.9-20.9,37.3-51,37.3-84.4c0-9.5-1.1-18.7-3.3-27.4
			c0.6-0.6,1.2-1.3,1.7-1.9C223.1,174.9,254.9,172.4,276.1,190.5z"/>
		
			<linearGradient id="SVGID_2_" gradientUnits="userSpaceOnUse" x1="107.4986" y1="267.2561" x2="270.3173" y2="267.2561" gradientTransform="matrix(1 0 0 -1 0 310.9563)">
			<stop  offset="0" style="stop-color:#4CA0A2"/>
			<stop  offset="1" style="stop-color:#92FFC0"/>
		</linearGradient>
		<path class="st2" d="M269.1,72.5c2.6,4.9,0.7,11.1-4.2,13.7c-4.5,2.4-10.1,1-13-3.1l-0.1-0.1c-13.5-19-32.6-33.2-53.7-40.5
			c-13.1-4.6-26.9-6.4-40.4-5.7c-13.9-14.1-31-25-50.2-31.3c6-1.7,12.1-3,18.2-4c14.5-2.2,29.3-2.1,43.6,0.1c7.1,1.2,14.2,2.8,21,5
			c6.8,2.2,13.4,5,19.8,8.2C235.6,27.6,256.3,48.3,269.1,72.5z"/>
		
			<linearGradient id="SVGID_3_" gradientUnits="userSpaceOnUse" x1="31.8686" y1="56.9924" x2="206.5986" y2="56.9924" gradientTransform="matrix(1 0 0 -1 0 310.9563)">
			<stop  offset="0" style="stop-color:#00BECF"/>
			<stop  offset="1" style="stop-color:#92FFC0"/>
		</linearGradient>
		<path class="st3" d="M203.3,198c2.2,8.8,3.3,18,3.3,27.4c0,33.5-14.4,63.6-37.3,84.4c-14.4,0.5-28.8-0.8-42.8-3.9
			c-16.6-3.7-32.6-10.1-47.1-18.5c-3.7-2.1-7.2-4.4-10.6-6.8c-3.4-2.5-6.8-4.9-10-7.6c-3.3-2.6-6.3-5.4-9.4-8.2
			c-3-2.9-5.9-5.9-8.6-9c-3.1-3.5-6.1-7.1-8.9-10.8c11.5,3.5,23.6,5.3,36.2,5.3c30.1,0,57.8-10.6,79.4-28.3c6.1,0,12.1-0.8,17.9-2.2
			C180.4,216.3,193.6,208.5,203.3,198z"/>
		
			<linearGradient id="SVGID_4_" gradientUnits="userSpaceOnUse" x1="-8.672" y1="161.5787" x2="130.7722" y2="301.0229" gradientTransform="matrix(1 0 0 -1 0 310.9563)">
			<stop  offset="1.887480e-07" style="stop-color:#F252ED"/>
			<stop  offset="1" style="stop-color:#4CA0A2"/>
		</linearGradient>
		<path class="st4" d="M107.5,5.6c19.2,6.3,36.4,17.2,50.2,31.3c-8.1,0.4-16.1,1.8-23.7,4.1c-20.5,6-38.6,18.1-51.1,34
			c-9.4,11.8-15.8,25.6-18.7,39.9c-26.1,6.7-48.6,22.3-64,43.4c-0.7-12.4,0.1-24.9,2.4-37.1c5.8-31.1,21.5-59.6,43.6-80.6
			C63.8,23.9,85,12,107.5,5.6z"/>
		
			<linearGradient id="SVGID_5_" gradientUnits="userSpaceOnUse" x1="0.2286" y1="128.3082" x2="147.5486" y2="128.3082" gradientTransform="matrix(1 0 0 -1 0 310.9563)">
			<stop  offset="0" style="stop-color:#511280"/>
			<stop  offset="1" style="stop-color:#81FFEF"/>
		</linearGradient>
		<path class="st5" d="M116.4,216.3c10.1,4,20.7,5.9,31.1,5.8c-21.6,17.7-49.3,28.3-79.4,28.3c-12.6,0-24.8-1.9-36.2-5.3
			c-7.1-9.4-13-19.6-17.8-30.2c-8.1-18-12.8-37.3-13.8-56.6c15.4-21.1,37.9-36.8,64-43.4c-1,4.8-1.6,9.6-1.8,14.4
			c-0.9,19.1,4.3,38.1,14.2,53.6C86.4,198.3,100.5,209.9,116.4,216.3z"/>
	</g>
</g>
</svg>
